<?xml version="1.0" encoding="UTF-8"?>
<svg id="uuid-5d25d1ed-1b1b-4f2e-8b72-6cf4a8389a78" data-name="Layer 1" xmlns="http://www.w3.org/2000/svg" viewBox="0 0 222 222">
  <defs>
    <style>
      .uuid-b1b0c837-87bf-4530-97fd-5248232008ee {
        fill: #3b3428;
      }

      .uuid-b1b0c837-87bf-4530-97fd-5248232008ee, .uuid-6645ab44-2d09-47a4-8edb-55e0a096b3b7, .uuid-1a0b034e-ddc6-4ee0-a492-faf724fc4664, .uuid-091b3adc-16e3-4d24-ab6a-6b98646548a4, .uuid-44d23fad-cbba-435b-a98b-1ee4863849ec, .uuid-9a323b81-4849-4413-a4d1-ea1d4a6315fd, .uuid-51c159f8-39c0-4771-b54d-16f4b0e81119, .uuid-c182dccc-e74b-43aa-bb77-c3d2accbca4f, .uuid-43198e12-ba0d-4ddc-b062-3b6d5d7d3564, .uuid-cbcc41e3-8d2d-4afb-bc9e-d03b64b7da6f {
        stroke-width: 0px;
      }

      .uuid-6645ab44-2d09-47a4-8edb-55e0a096b3b7 {
        fill: #8d8776;
      }

      .uuid-1a0b034e-ddc6-4ee0-a492-faf724fc4664 {
        fill: #ed1c24;
      }

      .uuid-091b3adc-16e3-4d24-ab6a-6b98646548a4 {
        fill: #7b7460;
      }

      .uuid-44d23fad-cbba-435b-a98b-1ee4863849ec {
        fill: #6c6555;
      }

      .uuid-9a323b81-4849-4413-a4d1-ea1d4a6315fd {
        fill: #cdc3b1;
      }

      .uuid-51c159f8-39c0-4771-b54d-16f4b0e81119 {
        fill: #ff0006;
      }

      .uuid-c182dccc-e74b-43aa-bb77-c3d2accbca4f {
        fill: #5a5448;
      }

      .uuid-43198e12-ba0d-4ddc-b062-3b6d5d7d3564 {
        fill: #ee9199;
      }

      .uuid-cbcc41e3-8d2d-4afb-bc9e-d03b64b7da6f {
        fill: #fff;
      }
    </style>
  </defs>
  <path class="uuid-1a0b034e-ddc6-4ee0-a492-faf724fc4664" d="M38.41,186.41c-2.72-2.64-5.33-5.47-7.75-8.4l4.97-4.11c2.27,2.75,4.72,5.4,7.28,7.88l-4.5,4.63Z"/>
  <path class="uuid-1a0b034e-ddc6-4ee0-a492-faf724fc4664" d="M28.86,175.79c-2.34-2.99-4.54-6.14-6.54-9.37l5.48-3.4c1.88,3.03,3.95,5.99,6.14,8.79l-5.08,3.98Z"/>
  <path class="uuid-1a0b034e-ddc6-4ee0-a492-faf724fc4664" d="M20.85,163.97c-1.91-3.28-3.67-6.7-5.21-10.17l5.89-2.63c1.45,3.25,3.1,6.46,4.89,9.54l-5.57,3.25Z"/>
  <path class="uuid-cbcc41e3-8d2d-4afb-bc9e-d03b64b7da6f" d="M183.34,187.19l-4.44-4.68c2.59-2.46,5.07-5.08,7.37-7.79l4.92,4.17c-2.45,2.89-5.09,5.68-7.85,8.3Z"/>
  <path class="uuid-1a0b034e-ddc6-4ee0-a492-faf724fc4664" d="M14.51,151.18c-1.45-3.51-2.72-7.14-3.78-10.78l6.2-1.8c.99,3.42,2.19,6.82,3.55,10.11l-5.96,2.46Z"/>
  <path class="uuid-cbcc41e3-8d2d-4afb-bc9e-d03b64b7da6f" d="M193.02,176.68l-5.03-4.03c2.23-2.78,4.33-5.72,6.24-8.72l5.45,3.46c-2.04,3.2-4.27,6.33-6.65,9.3Z"/>
  <path class="uuid-1a0b034e-ddc6-4ee0-a492-faf724fc4664" d="M9.97,137.65c-.96-3.67-1.72-7.44-2.27-11.2l6.38-.93c.52,3.53,1.23,7.06,2.13,10.51l-6.24,1.63Z"/>
  <path class="uuid-cbcc41e3-8d2d-4afb-bc9e-d03b64b7da6f" d="M201.17,164.94l-5.54-3.31c1.83-3.06,3.51-6.25,4.99-9.49l5.87,2.68c-1.58,3.46-3.37,6.86-5.32,10.12Z"/>
  <path class="uuid-1a0b034e-ddc6-4ee0-a492-faf724fc4664" d="M7.32,123.62c-.44-3.77-.69-7.6-.71-11.41l6.45-.05c.03,3.57.25,7.17.67,10.7l-6.41.76Z"/>
  <path class="uuid-cbcc41e3-8d2d-4afb-bc9e-d03b64b7da6f" d="M207.64,152.2l-5.94-2.52c1.39-3.28,2.61-6.67,3.64-10.09l6.18,1.85c-1.09,3.64-2.39,7.26-3.88,10.75Z"/>
  <path class="uuid-1a0b034e-ddc6-4ee0-a492-faf724fc4664" d="M6.63,109.35c.07-3.78.36-7.62.84-11.39l6.4.83c-.46,3.54-.72,7.14-.79,10.69l-6.45-.13Z"/>
  <path class="uuid-cbcc41e3-8d2d-4afb-bc9e-d03b64b7da6f" d="M212.3,138.7l-6.23-1.68c.93-3.43,1.68-6.96,2.23-10.49l.03-.19,6.37,1-.02.15c-.6,3.8-1.4,7.56-2.39,11.22Z"/>
  <path class="uuid-1a0b034e-ddc6-4ee0-a492-faf724fc4664" d="M14.25,96.13l-6.37-1,.02-.1c.59-3.72,1.38-7.45,2.35-11.07l6.23,1.68c-.92,3.4-1.66,6.9-2.21,10.4l-.02.1Z"/>
  <path class="uuid-cbcc41e3-8d2d-4afb-bc9e-d03b64b7da6f" d="M208.71,123.68c.45-3.54.72-7.14.78-10.69l6.45.12c-.07,3.79-.35,7.62-.83,11.39l-6.4-.82Z"/>
  <path class="uuid-1a0b034e-ddc6-4ee0-a492-faf724fc4664" d="M17.2,83.05l-6.18-1.85c1.09-3.64,2.39-7.26,3.87-10.76l5.94,2.51c-1.39,3.28-2.61,6.67-3.63,10.09Z"/>
  <path class="uuid-cbcc41e3-8d2d-4afb-bc9e-d03b64b7da6f" d="M209.5,110.3c-.03-3.56-.26-7.16-.68-10.7l6.41-.76c.45,3.77.69,7.61.73,11.41l-6.45.05Z"/>
  <path class="uuid-1a0b034e-ddc6-4ee0-a492-faf724fc4664" d="M21.91,70.51l-5.87-2.67c1.57-3.46,3.36-6.86,5.31-10.13l5.54,3.3c-1.83,3.06-3.5,6.26-4.98,9.5Z"/>
  <path class="uuid-cbcc41e3-8d2d-4afb-bc9e-d03b64b7da6f" d="M208.47,96.95c-.52-3.53-1.24-7.06-2.14-10.51l6.24-1.64c.96,3.67,1.73,7.44,2.28,11.2l-6.38.94Z"/>
  <path class="uuid-1a0b034e-ddc6-4ee0-a492-faf724fc4664" d="M28.29,58.71l-5.45-3.45c2.03-3.21,4.27-6.34,6.64-9.31l5.04,4.03c-2.23,2.78-4.32,5.72-6.23,8.73Z"/>
  <path class="uuid-cbcc41e3-8d2d-4afb-bc9e-d03b64b7da6f" d="M205.61,83.86c-.99-3.41-2.19-6.82-3.56-10.11l5.96-2.47c1.46,3.51,2.73,7.14,3.79,10.78l-6.19,1.81Z"/>
  <path class="uuid-1a0b034e-ddc6-4ee0-a492-faf724fc4664" d="M36.23,47.91l-4.92-4.17c2.45-2.9,5.09-5.69,7.85-8.31l4.44,4.68c-2.58,2.45-5.06,5.08-7.36,7.8Z"/>
  <path class="uuid-cbcc41e3-8d2d-4afb-bc9e-d03b64b7da6f" d="M201,71.29c-1.45-3.25-3.1-6.46-4.9-9.54l5.57-3.26c1.92,3.28,3.67,6.7,5.22,10.16l-5.89,2.63Z"/>
  <path class="uuid-1a0b034e-ddc6-4ee0-a492-faf724fc4664" d="M45.57,38.29l-4.31-4.8c2.82-2.54,5.82-4.95,8.9-7.17l3.77,5.24c-2.9,2.08-5.71,4.35-8.35,6.73Z"/>
  <path class="uuid-cbcc41e3-8d2d-4afb-bc9e-d03b64b7da6f" d="M194.71,59.46c-1.88-3.03-3.95-5.98-6.15-8.79l5.08-3.98c2.34,2.99,4.55,6.14,6.55,9.36l-5.48,3.41Z"/>
  <path class="uuid-1a0b034e-ddc6-4ee0-a492-faf724fc4664" d="M56.12,30.02l-3.62-5.34c3.14-2.14,6.44-4.12,9.79-5.9l3.02,5.7c-3.14,1.67-6.24,3.53-9.19,5.53Z"/>
  <path class="uuid-cbcc41e3-8d2d-4afb-bc9e-d03b64b7da6f" d="M186.88,48.58c-2.28-2.75-4.73-5.4-7.28-7.88l4.49-4.63c2.72,2.64,5.33,5.46,7.76,8.39l-4.97,4.12Z"/>
  <path class="uuid-1a0b034e-ddc6-4ee0-a492-faf724fc4664" d="M67.69,23.26l-2.87-5.78c3.4-1.69,6.93-3.21,10.5-4.51l2.22,6.06c-3.34,1.23-6.66,2.65-9.85,4.24Z"/>
  <path class="uuid-cbcc41e3-8d2d-4afb-bc9e-d03b64b7da6f" d="M177.64,38.86c-2.63-2.42-5.42-4.71-8.29-6.81l3.82-5.2c3.06,2.24,6.03,4.69,8.83,7.26l-4.36,4.75Z"/>
  <path class="uuid-1a0b034e-ddc6-4ee0-a492-faf724fc4664" d="M80.06,18.14l-2.05-6.12c3.6-1.21,7.31-2.23,11.02-3.04l1.37,6.3c-3.48.76-6.96,1.72-10.34,2.85Z"/>
  <path class="uuid-cbcc41e3-8d2d-4afb-bc9e-d03b64b7da6f" d="M167.17,30.49c-2.93-2.03-6-3.92-9.14-5.61l3.07-5.67c3.34,1.81,6.62,3.82,9.74,5.99l-3.68,5.3Z"/>
  <path class="uuid-1a0b034e-ddc6-4ee0-a492-faf724fc4664" d="M93.03,14.75l-1.2-6.34c3.74-.71,7.55-1.21,11.33-1.5l.49,6.43c-3.55.27-7.12.75-10.63,1.41Z"/>
  <path class="uuid-cbcc41e3-8d2d-4afb-bc9e-d03b64b7da6f" d="M155.64,23.63c-3.18-1.61-6.49-3.06-9.82-4.31l2.26-6.04c3.56,1.33,7.08,2.88,10.47,4.59l-2.91,5.76Z"/>
  <path class="uuid-1a0b034e-ddc6-4ee0-a492-faf724fc4664" d="M106.33,13.17l-.32-6.44c3.79-.19,7.63-.17,11.43.06l-.39,6.44c-3.56-.22-7.17-.23-10.72-.06Z"/>
  <path class="uuid-cbcc41e3-8d2d-4afb-bc9e-d03b64b7da6f" d="M143.3,18.41c-3.36-1.15-6.83-2.14-10.32-2.92l1.42-6.29c3.71.84,7.41,1.89,10.99,3.12l-2.1,6.1Z"/>
  <path class="uuid-cbcc41e3-8d2d-4afb-bc9e-d03b64b7da6f" d="M119.73,13.43l.56-6.43c2.4.21,4.82.5,7.2.88,1.33.21,2.75.46,4.11.73l-1.25,6.33c-1.28-.25-2.58-.51-3.86-.68-2.24-.35-4.51-.63-6.76-.82Z"/>
  <g>
    <polygon class="uuid-43198e12-ba0d-4ddc-b062-3b6d5d7d3564" points="46.61 171.16 71.22 147.87 66.62 132.55 46.61 171.16"/>
    <polygon class="uuid-51c159f8-39c0-4771-b54d-16f4b0e81119" points="46.61 171.16 71.22 147.87 86.26 153.3 46.61 171.16"/>
    <polygon class="uuid-c182dccc-e74b-43aa-bb77-c3d2accbca4f" points="66.62 132.55 71.22 147.87 86.26 153.3 66.62 132.55"/>
  </g>
  <g>
    <polygon class="uuid-c182dccc-e74b-43aa-bb77-c3d2accbca4f" points="100.62 61.82 54.11 105.84 58.36 110.32 108.29 163.07 112.53 167.55 159.04 123.53 162.26 107.98 116.32 59.44 100.62 61.82"/>
    <rect class="uuid-b1b0c837-87bf-4530-97fd-5248232008ee" x="60.01" y="92.14" width="84.97" height="52.8" transform="translate(86.87 274.47) rotate(-133.43)"/>
    <polygon class="uuid-44d23fad-cbba-435b-a98b-1ee4863849ec" points="104.05 65.45 105.23 61.12 100.61 61.82 92.46 69.54 95.9 73.17 104.05 65.45"/>
    <polygon class="uuid-44d23fad-cbba-435b-a98b-1ee4863849ec" points="155.59 119.9 159.98 118.95 159.03 123.53 150.88 131.25 147.44 127.62 155.59 119.9"/>
    <rect class="uuid-6645ab44-2d09-47a4-8edb-55e0a096b3b7" x="88.26" y="90.92" width="74.98" height="11.23" transform="translate(142.09 254.22) rotate(-133.43)"/>
    <polygon class="uuid-9a323b81-4849-4413-a4d1-ea1d4a6315fd" points="63.99 73.74 145.13 159.44 112.53 167.55 54.11 105.84 63.99 73.74"/>
    <polygon class="uuid-091b3adc-16e3-4d24-ab6a-6b98646548a4" points="145.13 159.44 148.8 157.45 65.9 69.87 63.99 73.74 145.13 159.44"/>
    <polygon class="uuid-c182dccc-e74b-43aa-bb77-c3d2accbca4f" points="75.98 67.91 151.31 147.49 148.8 157.45 65.9 69.87 75.98 67.91"/>
  </g>
</svg>