<?xml version="1.0" encoding="UTF-8"?>
<svg id="uuid-0efe138e-d520-4371-aad7-daccd43b1043" data-name="Layer 1" xmlns="http://www.w3.org/2000/svg" viewBox="0 0 222 222">
  <defs>
    <style>
      .uuid-890d5a3f-859b-43ab-8042-179614a2acb5 {
        fill: #8d8776;
      }

      .uuid-890d5a3f-859b-43ab-8042-179614a2acb5, .uuid-78c7b35e-10cf-4425-bded-d355ddcd47bd, .uuid-0923ce12-60ff-4c72-b68c-8b2104685940, .uuid-e1e66f82-36df-4aeb-bc6c-756f5a2e5c79, .uuid-a402e445-7a3f-4e8b-8498-cf96057872fa, .uuid-1bf30565-71c8-4313-b1ae-c28ec1197c4a, .uuid-65e3d1f8-573d-49c1-8560-c9289d28a46e, .uuid-25ae26f7-f807-493c-853f-06d73306b5f3, .uuid-0224ad43-00c9-4c6b-999a-e0ba9d856483 {
        stroke-width: 0px;
      }

      .uuid-78c7b35e-10cf-4425-bded-d355ddcd47bd {
        fill: #d0d2d3;
      }

      .uuid-0923ce12-60ff-4c72-b68c-8b2104685940 {
        fill: #ed1c24;
      }

      .uuid-e1e66f82-36df-4aeb-bc6c-756f5a2e5c79 {
        fill: #b5b0a5;
      }

      .uuid-a402e445-7a3f-4e8b-8498-cf96057872fa {
        fill: #6c6555;
      }

      .uuid-1bf30565-71c8-4313-b1ae-c28ec1197c4a {
        fill: #ff0006;
      }

      .uuid-65e3d1f8-573d-49c1-8560-c9289d28a46e {
        fill: #5a5448;
      }

      .uuid-25ae26f7-f807-493c-853f-06d73306b5f3 {
        fill: #ee9199;
      }

      .uuid-0224ad43-00c9-4c6b-999a-e0ba9d856483 {
        fill: #fff;
      }
    </style>
  </defs>
  <path class="uuid-0224ad43-00c9-4c6b-999a-e0ba9d856483" d="M38.41,186.41c-2.72-2.64-5.33-5.47-7.75-8.4l4.97-4.11c2.27,2.75,4.72,5.4,7.28,7.88l-4.5,4.63Z"/>
  <path class="uuid-0224ad43-00c9-4c6b-999a-e0ba9d856483" d="M28.86,175.79c-2.34-2.99-4.54-6.14-6.54-9.37l5.48-3.4c1.88,3.03,3.95,5.99,6.14,8.79l-5.08,3.98Z"/>
  <path class="uuid-0224ad43-00c9-4c6b-999a-e0ba9d856483" d="M20.85,163.97c-1.91-3.28-3.67-6.7-5.21-10.17l5.89-2.63c1.45,3.25,3.1,6.46,4.89,9.54l-5.57,3.25Z"/>
  <path class="uuid-0224ad43-00c9-4c6b-999a-e0ba9d856483" d="M183.34,187.19l-4.44-4.68c2.59-2.46,5.07-5.08,7.37-7.79l4.92,4.17c-2.45,2.89-5.09,5.68-7.85,8.3Z"/>
  <path class="uuid-0224ad43-00c9-4c6b-999a-e0ba9d856483" d="M14.51,151.18c-1.45-3.51-2.72-7.14-3.78-10.78l6.2-1.8c.99,3.42,2.19,6.82,3.55,10.11l-5.96,2.46Z"/>
  <path class="uuid-0224ad43-00c9-4c6b-999a-e0ba9d856483" d="M193.02,176.68l-5.03-4.03c2.23-2.78,4.33-5.72,6.24-8.72l5.45,3.46c-2.04,3.2-4.27,6.33-6.65,9.3Z"/>
  <path class="uuid-0224ad43-00c9-4c6b-999a-e0ba9d856483" d="M9.97,137.65c-.96-3.67-1.72-7.44-2.27-11.2l6.38-.93c.52,3.53,1.23,7.06,2.13,10.51l-6.24,1.63Z"/>
  <path class="uuid-0224ad43-00c9-4c6b-999a-e0ba9d856483" d="M201.17,164.94l-5.54-3.31c1.83-3.06,3.51-6.25,4.99-9.49l5.87,2.68c-1.58,3.46-3.37,6.86-5.32,10.12Z"/>
  <path class="uuid-0224ad43-00c9-4c6b-999a-e0ba9d856483" d="M7.32,123.62c-.44-3.77-.69-7.6-.71-11.41l6.45-.05c.03,3.57.25,7.17.67,10.7l-6.41.76Z"/>
  <path class="uuid-0224ad43-00c9-4c6b-999a-e0ba9d856483" d="M207.64,152.2l-5.94-2.52c1.39-3.28,2.61-6.67,3.64-10.09l6.18,1.85c-1.09,3.64-2.39,7.26-3.88,10.75Z"/>
  <path class="uuid-0224ad43-00c9-4c6b-999a-e0ba9d856483" d="M6.63,109.35c.07-3.78.36-7.62.84-11.39l6.4.83c-.46,3.54-.72,7.14-.79,10.69l-6.45-.13Z"/>
  <path class="uuid-0224ad43-00c9-4c6b-999a-e0ba9d856483" d="M212.3,138.7l-6.23-1.68c.93-3.43,1.68-6.96,2.23-10.49l.03-.19,6.37,1-.02.15c-.6,3.8-1.4,7.56-2.39,11.22Z"/>
  <path class="uuid-0923ce12-60ff-4c72-b68c-8b2104685940" d="M14.25,96.13l-6.37-1,.02-.1c.59-3.72,1.38-7.45,2.35-11.07l6.23,1.68c-.92,3.4-1.66,6.9-2.21,10.4l-.02.1Z"/>
  <path class="uuid-0224ad43-00c9-4c6b-999a-e0ba9d856483" d="M208.71,123.68c.45-3.54.72-7.14.78-10.69l6.45.12c-.07,3.79-.35,7.62-.83,11.39l-6.4-.82Z"/>
  <path class="uuid-0923ce12-60ff-4c72-b68c-8b2104685940" d="M17.2,83.05l-6.18-1.85c1.09-3.64,2.39-7.26,3.87-10.76l5.94,2.51c-1.39,3.28-2.61,6.67-3.63,10.09Z"/>
  <path class="uuid-0224ad43-00c9-4c6b-999a-e0ba9d856483" d="M209.5,110.3c-.03-3.56-.26-7.16-.68-10.7l6.41-.76c.45,3.77.69,7.61.73,11.41l-6.45.05Z"/>
  <path class="uuid-0923ce12-60ff-4c72-b68c-8b2104685940" d="M21.91,70.51l-5.87-2.67c1.57-3.46,3.36-6.86,5.31-10.13l5.54,3.3c-1.83,3.06-3.5,6.26-4.98,9.5Z"/>
  <path class="uuid-0224ad43-00c9-4c6b-999a-e0ba9d856483" d="M208.47,96.95c-.52-3.53-1.24-7.06-2.14-10.51l6.24-1.64c.96,3.67,1.73,7.44,2.28,11.2l-6.38.94Z"/>
  <path class="uuid-0923ce12-60ff-4c72-b68c-8b2104685940" d="M28.29,58.71l-5.45-3.45c2.03-3.21,4.27-6.34,6.64-9.31l5.04,4.03c-2.23,2.78-4.32,5.72-6.23,8.73Z"/>
  <path class="uuid-0224ad43-00c9-4c6b-999a-e0ba9d856483" d="M205.61,83.86c-.99-3.41-2.19-6.82-3.56-10.11l5.96-2.47c1.46,3.51,2.73,7.14,3.79,10.78l-6.19,1.81Z"/>
  <path class="uuid-0923ce12-60ff-4c72-b68c-8b2104685940" d="M36.23,47.91l-4.92-4.17c2.45-2.9,5.09-5.69,7.85-8.31l4.44,4.68c-2.58,2.45-5.06,5.08-7.36,7.8Z"/>
  <path class="uuid-0224ad43-00c9-4c6b-999a-e0ba9d856483" d="M201,71.29c-1.45-3.25-3.1-6.46-4.9-9.54l5.57-3.26c1.92,3.28,3.67,6.7,5.22,10.16l-5.89,2.63Z"/>
  <path class="uuid-0923ce12-60ff-4c72-b68c-8b2104685940" d="M45.57,38.29l-4.31-4.8c2.82-2.54,5.82-4.95,8.9-7.17l3.77,5.24c-2.9,2.08-5.71,4.35-8.35,6.73Z"/>
  <path class="uuid-0224ad43-00c9-4c6b-999a-e0ba9d856483" d="M194.71,59.46c-1.88-3.03-3.95-5.98-6.15-8.79l5.08-3.98c2.34,2.99,4.55,6.14,6.55,9.36l-5.48,3.41Z"/>
  <path class="uuid-0923ce12-60ff-4c72-b68c-8b2104685940" d="M56.12,30.02l-3.62-5.34c3.14-2.14,6.44-4.12,9.79-5.9l3.02,5.7c-3.14,1.67-6.24,3.53-9.19,5.53Z"/>
  <path class="uuid-0224ad43-00c9-4c6b-999a-e0ba9d856483" d="M186.88,48.58c-2.28-2.75-4.73-5.4-7.28-7.88l4.49-4.63c2.72,2.64,5.33,5.46,7.76,8.39l-4.97,4.12Z"/>
  <path class="uuid-0923ce12-60ff-4c72-b68c-8b2104685940" d="M67.69,23.26l-2.87-5.78c3.4-1.69,6.93-3.21,10.5-4.51l2.22,6.06c-3.34,1.23-6.66,2.65-9.85,4.24Z"/>
  <path class="uuid-0224ad43-00c9-4c6b-999a-e0ba9d856483" d="M177.64,38.86c-2.63-2.42-5.42-4.71-8.29-6.81l3.82-5.2c3.06,2.24,6.03,4.69,8.83,7.26l-4.36,4.75Z"/>
  <path class="uuid-0923ce12-60ff-4c72-b68c-8b2104685940" d="M80.06,18.14l-2.05-6.12c3.6-1.21,7.31-2.23,11.02-3.04l1.37,6.3c-3.48.76-6.96,1.72-10.34,2.85Z"/>
  <path class="uuid-0224ad43-00c9-4c6b-999a-e0ba9d856483" d="M167.17,30.49c-2.93-2.03-6-3.92-9.14-5.61l3.07-5.67c3.34,1.81,6.62,3.82,9.74,5.99l-3.68,5.3Z"/>
  <path class="uuid-0923ce12-60ff-4c72-b68c-8b2104685940" d="M93.03,14.75l-1.2-6.34c3.74-.71,7.55-1.21,11.33-1.5l.49,6.43c-3.55.27-7.12.75-10.63,1.41Z"/>
  <path class="uuid-0224ad43-00c9-4c6b-999a-e0ba9d856483" d="M155.64,23.63c-3.18-1.61-6.49-3.06-9.82-4.31l2.26-6.04c3.56,1.33,7.08,2.88,10.47,4.59l-2.91,5.76Z"/>
  <path class="uuid-0923ce12-60ff-4c72-b68c-8b2104685940" d="M106.33,13.17l-.32-6.44c3.79-.19,7.63-.17,11.43.06l-.39,6.44c-3.56-.22-7.17-.23-10.72-.06Z"/>
  <path class="uuid-0224ad43-00c9-4c6b-999a-e0ba9d856483" d="M143.3,18.41c-3.36-1.15-6.83-2.14-10.32-2.92l1.42-6.29c3.71.84,7.41,1.89,10.99,3.12l-2.1,6.1Z"/>
  <path class="uuid-0224ad43-00c9-4c6b-999a-e0ba9d856483" d="M119.73,13.43l.56-6.43c2.4.21,4.82.5,7.2.88,1.33.21,2.75.46,4.11.73l-1.25,6.33c-1.28-.25-2.58-.51-3.86-.68-2.24-.35-4.51-.63-6.76-.82Z"/>
  <polygon class="uuid-65e3d1f8-573d-49c1-8560-c9289d28a46e" points="142.54 75.34 83.8 64.58 82.76 70.24 70.56 136.86 69.52 142.52 128.26 153.28 141.74 147.15 152.96 85.85 142.54 75.34"/>
  <rect class="uuid-78c7b35e-10cf-4425-bded-d355ddcd47bd" x="61.26" y="83.37" width="79.24" height="49.24" transform="translate(-23.52 187.76) rotate(-79.62)"/>
  <polygon class="uuid-a402e445-7a3f-4e8b-8498-cf96057872fa" points="141.69 79.92 145.6 78.43 142.53 75.34 132.23 73.45 131.39 78.04 141.69 79.92"/>
  <polygon class="uuid-a402e445-7a3f-4e8b-8498-cf96057872fa" points="129.09 148.69 132.22 151.48 128.25 153.28 117.96 151.39 118.8 146.81 129.09 148.69"/>
  <rect class="uuid-890d5a3f-859b-43ab-8042-179614a2acb5" x="95.28" y="108.13" width="69.91" height="10.47" transform="translate(-4.73 221.05) rotate(-79.62)"/>
  <rect class="uuid-890d5a3f-859b-43ab-8042-179614a2acb5" x="65.92" y="88.03" width="69.91" height="39.91" transform="translate(-23.52 187.76) rotate(-79.62)"/>
  <polygon class="uuid-e1e66f82-36df-4aeb-bc6c-756f5a2e5c79" points="69.52 142.52 74.95 138.78 87.54 70.01 83.8 64.58 69.52 142.52"/>
  <polygon class="uuid-65e3d1f8-573d-49c1-8560-c9289d28a46e" points="132.23 73.45 126.8 77.2 114.21 145.97 117.96 151.39 132.23 73.45"/>
  <polygon class="uuid-a402e445-7a3f-4e8b-8498-cf96057872fa" points="69.52 142.52 117.96 151.39 114.21 145.97 74.95 138.78 69.52 142.52"/>
  <polygon class="uuid-a402e445-7a3f-4e8b-8498-cf96057872fa" points="132.23 73.45 83.8 64.58 87.54 70.01 126.8 77.2 132.23 73.45"/>
  <g>
    <polygon class="uuid-25ae26f7-f807-493c-853f-06d73306b5f3" points="24.57 94.01 57.9 100.12 67.55 87.36 24.57 94.01"/>
    <polygon class="uuid-1bf30565-71c8-4313-b1ae-c28ec1197c4a" points="24.57 94.01 57.9 100.12 62.4 115.46 24.57 94.01"/>
    <polygon class="uuid-65e3d1f8-573d-49c1-8560-c9289d28a46e" points="67.55 87.36 57.9 100.12 62.4 115.46 67.55 87.36"/>
  </g>
</svg>