<svg id="Layer_1" data-name="Layer 1" xmlns="http://www.w3.org/2000/svg" viewBox="0 0 222 222"><defs><style>.cls-1{fill:#fff;}.cls-2{fill:#5a5448;}.cls-3{fill:#d0d2d3;}.cls-4{fill:#6c6555;}.cls-5{fill:#8d8776;}.cls-6{fill:#b5b0a5;}.cls-7{fill:#ee9199;}.cls-8{fill:#ff0006;}</style></defs><title>close-panel-left</title><path class="cls-1" d="M38.41,186.41A106,106,0,0,1,30.66,178l5-4.12a100.49,100.49,0,0,0,7.27,7.89Z"/><path class="cls-1" d="M28.86,175.79a109,109,0,0,1-6.54-9.37L27.8,163A97.43,97.43,0,0,0,34,171.81Z"/><path class="cls-1" d="M20.85,164a105.72,105.72,0,0,1-5.21-10.16l5.89-2.63a100.85,100.85,0,0,0,4.89,9.54Z"/><path class="cls-1" d="M183.34,187.19l-4.44-4.68a98.53,98.53,0,0,0,7.37-7.79l4.92,4.17A104.25,104.25,0,0,1,183.34,187.19Z"/><path class="cls-1" d="M14.51,151.18a105.9,105.9,0,0,1-3.78-10.78l6.19-1.8a101.12,101.12,0,0,0,3.55,10.12Z"/><path class="cls-1" d="M193,176.68l-5-4a98.93,98.93,0,0,0,6.24-8.73l5.45,3.46A106.86,106.86,0,0,1,193,176.68Z"/><path class="cls-1" d="M10,137.65a103.8,103.8,0,0,1-2.27-11.2l6.38-.93A101.16,101.16,0,0,0,16.21,136Z"/><path class="cls-1" d="M201.17,164.94l-5.54-3.31a96.31,96.31,0,0,0,5-9.49l5.87,2.68A103.68,103.68,0,0,1,201.17,164.94Z"/><path class="cls-1" d="M7.32,123.62a106.05,106.05,0,0,1-.71-11.41l6.45,0a97.88,97.88,0,0,0,.67,10.7Z"/><path class="cls-1" d="M207.64,152.2l-5.94-2.52a99.22,99.22,0,0,0,3.64-10.08l6.17,1.85A104.24,104.24,0,0,1,207.64,152.2Z"/><path class="cls-1" d="M6.63,109.35A103.7,103.7,0,0,1,7.47,98l6.4.82a96.26,96.26,0,0,0-.79,10.7Z"/><path class="cls-1" d="M212.3,138.7,206.07,137a97.75,97.75,0,0,0,2.23-10.49l0-.2,6.38,1,0,.15A108.37,108.37,0,0,1,212.3,138.7Z"/><path class="cls-1" d="M14.25,96.13l-6.38-1,0-.1A106.2,106.2,0,0,1,10.24,84l6.23,1.67A101.11,101.11,0,0,0,14.26,96Z"/><path class="cls-1" d="M208.71,123.68a100.92,100.92,0,0,0,.78-10.69l6.45.12a106.2,106.2,0,0,1-.83,11.39Z"/><path class="cls-1" d="M17.2,83.05,11,81.21a103.57,103.57,0,0,1,3.87-10.76L20.83,73A97,97,0,0,0,17.2,83.05Z"/><path class="cls-1" d="M209.5,110.3a97.86,97.86,0,0,0-.68-10.69l6.41-.77a103.55,103.55,0,0,1,.72,11.41Z"/><path class="cls-1" d="M21.91,70.51,16,67.83a104.83,104.83,0,0,1,5.3-10.13L26.88,61A97.59,97.59,0,0,0,21.91,70.51Z"/><path class="cls-1" d="M208.47,97a98.82,98.82,0,0,0-2.14-10.51l6.24-1.63A103.83,103.83,0,0,1,214.85,96Z"/><path class="cls-1" d="M28.29,58.71l-5.45-3.45A104.92,104.92,0,0,1,29.49,46l5,4A100.94,100.94,0,0,0,28.29,58.71Z"/><path class="cls-1" d="M205.61,83.86a99.34,99.34,0,0,0-3.55-10.11l6-2.47a106,106,0,0,1,3.79,10.78Z"/><path class="cls-1" d="M36.23,47.91l-4.92-4.17a106.1,106.1,0,0,1,7.84-8.31l4.44,4.68A100.41,100.41,0,0,0,36.23,47.91Z"/><path class="cls-1" d="M201,71.29a100.94,100.94,0,0,0-4.9-9.54l5.57-3.25a108.14,108.14,0,0,1,5.22,10.16Z"/><path class="cls-1" d="M45.57,38.29l-4.32-4.8a109.4,109.4,0,0,1,8.9-7.17l3.77,5.24A99.86,99.86,0,0,0,45.57,38.29Z"/><path class="cls-1" d="M194.71,59.46a98.86,98.86,0,0,0-6.15-8.79l5.08-4a106.07,106.07,0,0,1,6.55,9.36Z"/><path class="cls-1" d="M56.12,30,52.5,24.69a104.43,104.43,0,0,1,9.78-5.9l3,5.7A99.45,99.45,0,0,0,56.12,30Z"/><path class="cls-1" d="M186.88,48.58a97,97,0,0,0-7.29-7.87l4.49-4.64a104.31,104.31,0,0,1,7.76,8.39Z"/><path class="cls-1" d="M67.69,23.26l-2.87-5.78A107,107,0,0,1,75.32,13L77.54,19A98.3,98.3,0,0,0,67.69,23.26Z"/><path class="cls-1" d="M177.64,38.86a100,100,0,0,0-8.29-6.81l3.82-5.2A103.78,103.78,0,0,1,182,34.11Z"/><path class="cls-1" d="M80.06,18.14,78,12A105.08,105.08,0,0,1,89,9l1.37,6.31A95.33,95.33,0,0,0,80.06,18.14Z"/><path class="cls-1" d="M167.17,30.49A99.52,99.52,0,0,0,158,24.87l3.07-5.67a103.38,103.38,0,0,1,9.74,6Z"/><path class="cls-1" d="M93,14.75l-1.2-6.34a105.83,105.83,0,0,1,11.33-1.5l.5,6.43A97.55,97.55,0,0,0,93,14.75Z"/><path class="cls-1" d="M155.64,23.63a97.39,97.39,0,0,0-9.82-4.31l2.26-6a103.61,103.61,0,0,1,10.48,4.59Z"/><path class="cls-1" d="M106.33,13.17,106,6.73a103.6,103.6,0,0,1,11.42.06l-.38,6.44A101.07,101.07,0,0,0,106.33,13.17Z"/><path class="cls-1" d="M143.3,18.41A101.22,101.22,0,0,0,133,15.49L134.4,9.2a103.54,103.54,0,0,1,11,3.11Z"/><path class="cls-1" d="M119.73,13.43,120.29,7c2.4.21,4.82.51,7.2.88,1.34.21,2.75.46,4.11.73l-1.24,6.33c-1.28-.26-2.59-.52-3.87-.69C124.26,13.9,122,13.62,119.73,13.43Z"/><polygon class="cls-2" points="150.9 135.06 150.9 75.34 145.15 75.34 77.42 75.34 71.66 75.34 71.66 135.06 80.12 147.21 142.44 147.21 150.9 135.06"/><rect class="cls-3" x="71.66" y="75.34" width="79.24" height="49.24"/><polygon class="cls-4" points="146.24 135.05 148.41 138.63 150.9 135.05 150.9 124.58 146.24 124.58 146.24 135.05"/><polygon class="cls-4" points="76.33 135.05 74.15 138.63 71.66 135.05 71.66 124.58 76.33 124.58 76.33 135.05"/><rect class="cls-5" x="76.33" y="124.58" width="69.91" height="10.47"/><rect class="cls-5" x="76.33" y="80" width="69.91" height="39.91"/><polygon class="cls-6" points="71.66 75.34 76.33 80 146.24 80 150.9 75.34 71.66 75.34"/><polygon class="cls-2" points="150.9 124.58 146.24 119.92 76.33 119.92 71.66 124.58 150.9 124.58"/><polygon class="cls-4" points="71.66 75.34 71.66 124.58 76.33 119.92 76.33 80 71.66 75.34"/><polygon class="cls-4" points="150.9 124.58 150.9 75.34 146.24 80 146.24 119.92 150.9 124.58"/><polygon class="cls-7" points="111.28 22.39 111.28 56.27 125.57 63.46 111.28 22.39"/><polygon class="cls-8" points="111.28 22.39 111.28 56.27 97 63.46 111.28 22.39"/><polygon class="cls-2" points="125.57 63.46 111.28 56.27 97 63.46 125.57 63.46"/></svg>