<?xml version="1.0" encoding="UTF-8"?>
<svg id="uuid-93538da5-7500-4a13-a1f1-91b464620a02" data-name="Layer 1" xmlns="http://www.w3.org/2000/svg" viewBox="0 0 222 222">
  <defs>
    <style>
      .uuid-e3588215-7e19-41b0-ba02-6db6b4c38c9a {
        fill: #8d8776;
      }

      .uuid-e3588215-7e19-41b0-ba02-6db6b4c38c9a, .uuid-bbab55ad-d122-40be-9c6e-ae5914ecbd20, .uuid-6f2ddc55-e8b5-4c9c-81b1-669fadf49cfb, .uuid-3e7ccdb2-d03f-41c3-95cc-30a6239ec33a, .uuid-399bf02a-f2f1-4392-b983-eb6bb4dade9e, .uuid-3077466f-26d6-4656-8500-bd7bdca5e619, .uuid-f6585f34-573b-48f2-a46a-161d5e548a68, .uuid-f819992f-5cbf-4024-b3d8-f2fe4f7e221c, .uuid-ec282149-8003-4a51-ad3e-b67b8d510004 {
        stroke-width: 0px;
      }

      .uuid-bbab55ad-d122-40be-9c6e-ae5914ecbd20 {
        fill: #d0d2d3;
      }

      .uuid-6f2ddc55-e8b5-4c9c-81b1-669fadf49cfb {
        fill: #ed1c24;
      }

      .uuid-3e7ccdb2-d03f-41c3-95cc-30a6239ec33a {
        fill: #b5b0a5;
      }

      .uuid-399bf02a-f2f1-4392-b983-eb6bb4dade9e {
        fill: #6c6555;
      }

      .uuid-3077466f-26d6-4656-8500-bd7bdca5e619 {
        fill: #ff0006;
      }

      .uuid-f6585f34-573b-48f2-a46a-161d5e548a68 {
        fill: #5a5448;
      }

      .uuid-f819992f-5cbf-4024-b3d8-f2fe4f7e221c {
        fill: #ee9199;
      }

      .uuid-ec282149-8003-4a51-ad3e-b67b8d510004 {
        fill: #fff;
      }
    </style>
  </defs>
  <path class="uuid-ec282149-8003-4a51-ad3e-b67b8d510004" d="M38.41,186.41c-2.72-2.64-5.33-5.47-7.75-8.4l4.97-4.11c2.27,2.75,4.72,5.4,7.28,7.88l-4.5,4.63Z"/>
  <path class="uuid-ec282149-8003-4a51-ad3e-b67b8d510004" d="M28.86,175.79c-2.34-2.99-4.54-6.14-6.54-9.37l5.48-3.4c1.88,3.03,3.95,5.99,6.14,8.79l-5.08,3.98Z"/>
  <path class="uuid-ec282149-8003-4a51-ad3e-b67b8d510004" d="M20.85,163.97c-1.91-3.28-3.67-6.7-5.21-10.17l5.89-2.63c1.45,3.25,3.1,6.46,4.89,9.54l-5.57,3.25Z"/>
  <path class="uuid-ec282149-8003-4a51-ad3e-b67b8d510004" d="M183.34,187.19l-4.44-4.68c2.59-2.46,5.07-5.08,7.37-7.79l4.92,4.17c-2.45,2.89-5.09,5.68-7.85,8.3Z"/>
  <path class="uuid-ec282149-8003-4a51-ad3e-b67b8d510004" d="M14.51,151.18c-1.45-3.51-2.72-7.14-3.78-10.78l6.2-1.8c.99,3.42,2.19,6.82,3.55,10.11l-5.96,2.46Z"/>
  <path class="uuid-ec282149-8003-4a51-ad3e-b67b8d510004" d="M193.02,176.68l-5.03-4.03c2.23-2.78,4.33-5.72,6.24-8.72l5.45,3.46c-2.04,3.2-4.27,6.33-6.65,9.3Z"/>
  <path class="uuid-ec282149-8003-4a51-ad3e-b67b8d510004" d="M9.97,137.65c-.96-3.67-1.72-7.44-2.27-11.2l6.38-.93c.52,3.53,1.23,7.06,2.13,10.51l-6.24,1.63Z"/>
  <path class="uuid-ec282149-8003-4a51-ad3e-b67b8d510004" d="M201.17,164.94l-5.54-3.31c1.83-3.06,3.51-6.25,4.99-9.49l5.87,2.68c-1.58,3.46-3.37,6.86-5.32,10.12Z"/>
  <path class="uuid-ec282149-8003-4a51-ad3e-b67b8d510004" d="M7.32,123.62c-.44-3.77-.69-7.6-.71-11.41l6.45-.05c.03,3.57.25,7.17.67,10.7l-6.41.76Z"/>
  <path class="uuid-ec282149-8003-4a51-ad3e-b67b8d510004" d="M207.64,152.2l-5.94-2.52c1.39-3.28,2.61-6.67,3.64-10.09l6.18,1.85c-1.09,3.64-2.39,7.26-3.88,10.75Z"/>
  <path class="uuid-ec282149-8003-4a51-ad3e-b67b8d510004" d="M6.63,109.35c.07-3.78.36-7.62.84-11.39l6.4.83c-.46,3.54-.72,7.14-.79,10.69l-6.45-.13Z"/>
  <path class="uuid-ec282149-8003-4a51-ad3e-b67b8d510004" d="M212.3,138.7l-6.23-1.68c.93-3.43,1.68-6.96,2.23-10.49l.03-.19,6.37,1-.02.15c-.6,3.8-1.4,7.56-2.39,11.22Z"/>
  <path class="uuid-ec282149-8003-4a51-ad3e-b67b8d510004" d="M14.25,96.13l-6.37-1,.02-.1c.59-3.72,1.38-7.45,2.35-11.07l6.23,1.68c-.92,3.4-1.66,6.9-2.21,10.4l-.02.1Z"/>
  <path class="uuid-ec282149-8003-4a51-ad3e-b67b8d510004" d="M208.71,123.68c.45-3.54.72-7.14.78-10.69l6.45.12c-.07,3.79-.35,7.62-.83,11.39l-6.4-.82Z"/>
  <path class="uuid-ec282149-8003-4a51-ad3e-b67b8d510004" d="M17.2,83.05l-6.18-1.85c1.09-3.64,2.39-7.26,3.87-10.76l5.94,2.51c-1.39,3.28-2.61,6.67-3.63,10.09Z"/>
  <path class="uuid-ec282149-8003-4a51-ad3e-b67b8d510004" d="M209.5,110.3c-.03-3.56-.26-7.16-.68-10.7l6.41-.76c.45,3.77.69,7.61.73,11.41l-6.45.05Z"/>
  <path class="uuid-ec282149-8003-4a51-ad3e-b67b8d510004" d="M21.91,70.51l-5.87-2.67c1.57-3.46,3.36-6.86,5.31-10.13l5.54,3.3c-1.83,3.06-3.5,6.26-4.98,9.5Z"/>
  <path class="uuid-ec282149-8003-4a51-ad3e-b67b8d510004" d="M208.47,96.95c-.52-3.53-1.24-7.06-2.14-10.51l6.24-1.64c.96,3.67,1.73,7.44,2.28,11.2l-6.38.94Z"/>
  <path class="uuid-ec282149-8003-4a51-ad3e-b67b8d510004" d="M28.29,58.71l-5.45-3.45c2.03-3.21,4.27-6.34,6.64-9.31l5.04,4.03c-2.23,2.78-4.32,5.72-6.23,8.73Z"/>
  <path class="uuid-ec282149-8003-4a51-ad3e-b67b8d510004" d="M205.61,83.86c-.99-3.41-2.19-6.82-3.56-10.11l5.96-2.47c1.46,3.51,2.73,7.14,3.79,10.78l-6.19,1.81Z"/>
  <path class="uuid-ec282149-8003-4a51-ad3e-b67b8d510004" d="M36.23,47.91l-4.92-4.17c2.45-2.9,5.09-5.69,7.85-8.31l4.44,4.68c-2.58,2.45-5.06,5.08-7.36,7.8Z"/>
  <path class="uuid-ec282149-8003-4a51-ad3e-b67b8d510004" d="M201,71.29c-1.45-3.25-3.1-6.46-4.9-9.54l5.57-3.26c1.92,3.28,3.67,6.7,5.22,10.16l-5.89,2.63Z"/>
  <path class="uuid-ec282149-8003-4a51-ad3e-b67b8d510004" d="M45.57,38.29l-4.31-4.8c2.82-2.54,5.82-4.95,8.9-7.17l3.77,5.24c-2.9,2.08-5.71,4.35-8.35,6.73Z"/>
  <path class="uuid-ec282149-8003-4a51-ad3e-b67b8d510004" d="M194.71,59.46c-1.88-3.03-3.95-5.98-6.15-8.79l5.08-3.98c2.34,2.99,4.55,6.14,6.55,9.36l-5.48,3.41Z"/>
  <path class="uuid-ec282149-8003-4a51-ad3e-b67b8d510004" d="M56.12,30.02l-3.62-5.34c3.14-2.14,6.44-4.12,9.79-5.9l3.02,5.7c-3.14,1.67-6.24,3.53-9.19,5.53Z"/>
  <path class="uuid-6f2ddc55-e8b5-4c9c-81b1-669fadf49cfb" d="M186.88,48.58c-2.28-2.75-4.73-5.4-7.28-7.88l4.49-4.63c2.72,2.64,5.33,5.46,7.76,8.39l-4.97,4.12Z"/>
  <path class="uuid-ec282149-8003-4a51-ad3e-b67b8d510004" d="M67.69,23.26l-2.87-5.78c3.4-1.69,6.93-3.21,10.5-4.51l2.22,6.06c-3.34,1.23-6.66,2.65-9.85,4.24Z"/>
  <path class="uuid-6f2ddc55-e8b5-4c9c-81b1-669fadf49cfb" d="M177.64,38.86c-2.63-2.42-5.42-4.71-8.29-6.81l3.82-5.2c3.06,2.24,6.03,4.69,8.83,7.26l-4.36,4.75Z"/>
  <path class="uuid-ec282149-8003-4a51-ad3e-b67b8d510004" d="M80.06,18.14l-2.05-6.12c3.6-1.21,7.31-2.23,11.02-3.04l1.37,6.3c-3.48.76-6.96,1.72-10.34,2.85Z"/>
  <path class="uuid-6f2ddc55-e8b5-4c9c-81b1-669fadf49cfb" d="M167.17,30.49c-2.93-2.03-6-3.92-9.14-5.61l3.07-5.67c3.34,1.81,6.62,3.82,9.74,5.99l-3.68,5.3Z"/>
  <path class="uuid-ec282149-8003-4a51-ad3e-b67b8d510004" d="M93.03,14.75l-1.2-6.34c3.74-.71,7.55-1.21,11.33-1.5l.49,6.43c-3.55.27-7.12.75-10.63,1.41Z"/>
  <path class="uuid-6f2ddc55-e8b5-4c9c-81b1-669fadf49cfb" d="M155.64,23.63c-3.18-1.61-6.49-3.06-9.82-4.31l2.26-6.04c3.56,1.33,7.08,2.88,10.47,4.59l-2.91,5.76Z"/>
  <path class="uuid-6f2ddc55-e8b5-4c9c-81b1-669fadf49cfb" d="M106.33,13.17l-.32-6.44c3.79-.19,7.63-.17,11.43.06l-.39,6.44c-3.56-.22-7.17-.23-10.72-.06Z"/>
  <path class="uuid-6f2ddc55-e8b5-4c9c-81b1-669fadf49cfb" d="M143.3,18.41c-3.36-1.15-6.83-2.14-10.32-2.92l1.42-6.29c3.71.84,7.41,1.89,10.99,3.12l-2.1,6.1Z"/>
  <path class="uuid-6f2ddc55-e8b5-4c9c-81b1-669fadf49cfb" d="M119.73,13.43l.56-6.43c2.4.21,4.82.5,7.2.88,1.33.21,2.75.46,4.11.73l-1.25,6.33c-1.28-.25-2.58-.51-3.86-.68-2.24-.35-4.51-.63-6.76-.82Z"/>
  <g>
    <polygon class="uuid-f6585f34-573b-48f2-a46a-161d5e548a68" points="120.43 155.47 164.6 115.28 160.73 111.03 115.15 60.93 111.27 56.68 67.11 96.87 63.81 111.3 105.76 157.39 120.43 155.47"/>
    <rect class="uuid-bbab55ad-d122-40be-9c6e-ae5914ecbd20" x="80.11" y="77.93" width="79.24" height="49.24" transform="translate(115 -55.02) rotate(47.7)"/>
    <polygon class="uuid-399bf02a-f2f1-4392-b983-eb6bb4dade9e" points="117.3 152.02 116.12 156.04 120.44 155.47 128.18 148.42 125.05 144.97 117.3 152.02"/>
    <polygon class="uuid-399bf02a-f2f1-4392-b983-eb6bb4dade9e" points="70.25 100.31 66.14 101.11 67.11 96.86 74.85 89.81 77.99 93.26 70.25 100.31"/>
    <rect class="uuid-e3588215-7e19-41b0-ba02-6db6b4c38c9a" x="62.69" y="117.41" width="69.91" height="10.47" transform="translate(122.64 -32.12) rotate(47.7)"/>
    <rect class="uuid-e3588215-7e19-41b0-ba02-6db6b4c38c9a" x="84.77" y="82.59" width="69.91" height="39.91" transform="translate(115 -55.02) rotate(47.7)"/>
    <polygon class="uuid-3e7ccdb2-d03f-41c3-95cc-30a6239ec33a" points="111.27 56.68 110.96 63.26 158.02 114.97 164.6 115.28 111.27 56.68"/>
    <polygon class="uuid-f6585f34-573b-48f2-a46a-161d5e548a68" points="128.18 148.42 128.49 141.84 81.44 90.12 74.85 89.81 128.18 148.42"/>
    <polygon class="uuid-399bf02a-f2f1-4392-b983-eb6bb4dade9e" points="111.27 56.68 74.85 89.81 81.44 90.12 110.96 63.26 111.27 56.68"/>
    <polygon class="uuid-399bf02a-f2f1-4392-b983-eb6bb4dade9e" points="128.18 148.42 164.6 115.28 158.02 114.97 128.49 141.84 128.18 148.42"/>
  </g>
  <g>
    <polygon class="uuid-f819992f-5cbf-4024-b3d8-f2fe4f7e221c" points="177.11 50.34 152.04 73.14 156.34 88.55 177.11 50.34"/>
    <polygon class="uuid-3077466f-26d6-4656-8500-bd7bdca5e619" points="177.11 50.34 152.04 73.14 137.11 67.42 177.11 50.34"/>
    <polygon class="uuid-f6585f34-573b-48f2-a46a-161d5e548a68" points="156.34 88.55 152.04 73.14 137.11 67.42 156.34 88.55"/>
  </g>
</svg>