<svg xmlns="http://www.w3.org/2000/svg" viewBox="0 0 855.84 818.87"><defs><style>.cls-1{fill:#1c75bc;opacity:0.57;}.cls-2{fill:#ed1c24;opacity:0.51;}.cls-10,.cls-11,.cls-12,.cls-13,.cls-14,.cls-3,.cls-4,.cls-5,.cls-6,.cls-7,.cls-8,.cls-9{fill:none;stroke:#c3e2ea;stroke-miterlimit:10;}.cls-4{stroke-dasharray:4 4;}.cls-5{stroke-dasharray:4.01 4.01;}.cls-6{stroke-dasharray:3.98 3.98;}.cls-7{stroke-dasharray:3.98 3.98;}.cls-8{stroke-dasharray:4 4;}.cls-9{stroke-dasharray:4 4;}.cls-10{stroke-dasharray:4.02 4.02;}.cls-11{stroke-dasharray:3.98 3.98;}.cls-12{stroke-dasharray:4.01 4.01;}.cls-13{stroke-dasharray:4.13 4.13;}.cls-14{stroke-dasharray:3.85 3.85;}.cls-15{font-size:21px;font-family:Geogrotesque-Regular, Geogrotesque;}.cls-15,.cls-16,.cls-18{fill:#fff;}.cls-16,.cls-18{font-size:14px;font-family:Geogrotesque-SemiBold, Geogrotesque;font-weight:600;}.cls-16,.cls-19{letter-spacing:0.07em;}.cls-17{letter-spacing:-0.01em;}.cls-18{letter-spacing:0.03em;}</style></defs><title>radar_2</title><g id="Layer_2" data-name="Layer 2"><g id="Layer_1-2" data-name="Layer 1"><rect class="cls-1" x="120.89" y="741.54" width="231.43" height="76.83"/><rect class="cls-2" x="506.6" y="741.54" width="231.43" height="76.83"/><rect class="cls-2" x="738.03" y="46.96" width="117.14" height="77.13"/><line class="cls-3" x1="855.18" y1="46.94" x2="853.18" y2="46.94"/><line class="cls-4" x1="849.18" y1="46.94" x2="4" y2="46.94"/><line class="cls-3" x1="2" y1="46.94" y2="46.94"/><line class="cls-3" x1="855.18" y1="124.08" x2="853.18" y2="124.08"/><line class="cls-4" x1="849.18" y1="124.08" x2="4" y2="124.08"/><line class="cls-3" x1="2" y1="124.08" y2="124.08"/><line class="cls-3" x1="855.18" y1="201.23" x2="853.18" y2="201.23"/><line class="cls-4" x1="849.18" y1="201.23" x2="4" y2="201.23"/><line class="cls-3" x1="2" y1="201.23" y2="201.23"/><line class="cls-3" x1="855.18" y1="278.37" x2="853.18" y2="278.37"/><line class="cls-4" x1="849.18" y1="278.37" x2="4" y2="278.37"/><line class="cls-3" x1="2" y1="278.37" y2="278.37"/><line class="cls-3" x1="855.18" y1="355.51" x2="853.18" y2="355.51"/><line class="cls-4" x1="849.18" y1="355.51" x2="4" y2="355.51"/><line class="cls-3" x1="2" y1="355.51" y2="355.51"/><line class="cls-3" x1="855.18" y1="432.66" x2="853.18" y2="432.66"/><line class="cls-4" x1="849.18" y1="432.66" x2="4" y2="432.66"/><line class="cls-3" x1="2" y1="432.66" y2="432.66"/><line class="cls-3" x1="855.18" y1="509.8" x2="853.18" y2="509.8"/><line class="cls-4" x1="849.18" y1="509.8" x2="4" y2="509.8"/><line class="cls-3" x1="2" y1="509.8" y2="509.8"/><line class="cls-3" x1="855.18" y1="586.94" x2="853.18" y2="586.94"/><line class="cls-4" x1="849.18" y1="586.94" x2="4" y2="586.94"/><line class="cls-3" x1="2" y1="586.94" y2="586.94"/><line class="cls-3" x1="855.18" y1="664.08" x2="853.18" y2="664.08"/><line class="cls-4" x1="849.18" y1="664.08" x2="4" y2="664.08"/><line class="cls-3" x1="2" y1="664.08" y2="664.08"/><line class="cls-3" x1="855.18" y1="741.23" x2="853.18" y2="741.23"/><line class="cls-4" x1="849.18" y1="741.23" x2="4" y2="741.23"/><line class="cls-3" x1="2" y1="741.23" y2="741.23"/><line class="cls-3" x1="738.03" y1="818.37" x2="736.03" y2="818.37"/><line class="cls-5" x1="732.03" y1="818.37" x2="124.89" y2="818.37"/><line class="cls-3" x1="122.89" y1="818.37" x2="120.89" y2="818.37"/><line class="cls-3" x1="120.89" y1="5.8" x2="120.89" y2="7.8"/><line class="cls-6" x1="120.89" y1="11.78" x2="120.89" y2="814.38"/><line class="cls-3" x1="120.89" y1="816.37" x2="120.89" y2="818.37"/><line class="cls-3" x1="198.03" y1="5.8" x2="198.03" y2="7.8"/><line class="cls-7" x1="198.03" y1="11.78" x2="198.03" y2="814.38"/><line class="cls-3" x1="198.03" y1="816.37" x2="198.03" y2="818.37"/><line class="cls-3" x1="43.75" y1="5.8" x2="43.75" y2="7.8"/><line class="cls-8" x1="43.75" y1="11.8" x2="43.75" y2="737.54"/><line class="cls-3" x1="43.75" y1="739.54" x2="43.75" y2="741.54"/><line class="cls-3" x1="275.18" y1="5.8" x2="275.18" y2="7.8"/><line class="cls-9" x1="275.18" y1="11.8" x2="275.18" y2="737.54"/><line class="cls-3" x1="275.18" y1="739.54" x2="275.18" y2="741.54"/><line class="cls-3" x1="352.32" y1="5.8" x2="352.32" y2="7.8"/><line class="cls-6" x1="352.32" y1="11.78" x2="352.32" y2="814.38"/><line class="cls-3" x1="352.32" y1="816.37" x2="352.32" y2="818.37"/><line class="cls-3" x1="429.46" y1="46.96" x2="429.46" y2="48.96"/><line class="cls-10" x1="429.46" y1="52.97" x2="429.46" y2="814.36"/><line class="cls-3" x1="429.46" y1="816.37" x2="429.46" y2="818.37"/><line class="cls-3" x1="506.6" y1="5.8" x2="506.6" y2="7.8"/><line class="cls-6" x1="506.6" y1="11.78" x2="506.6" y2="814.38"/><line class="cls-3" x1="506.6" y1="816.37" x2="506.6" y2="818.37"/><line class="cls-3" x1="583.75" y1="5.8" x2="583.75" y2="7.8"/><line class="cls-9" x1="583.75" y1="11.8" x2="583.75" y2="737.54"/><line class="cls-3" x1="583.75" y1="739.54" x2="583.75" y2="741.54"/><line class="cls-3" x1="660.89" y1="5.8" x2="660.89" y2="7.8"/><line class="cls-7" x1="660.89" y1="11.78" x2="660.89" y2="814.38"/><line class="cls-3" x1="660.89" y1="816.37" x2="660.89" y2="818.37"/><line class="cls-3" x1="738.03" y1="5.8" x2="738.03" y2="7.8"/><line class="cls-11" x1="738.03" y1="11.78" x2="738.03" y2="814.38"/><line class="cls-3" x1="738.03" y1="816.37" x2="738.03" y2="818.37"/><line class="cls-3" x1="815.18" y1="124.08" x2="815.18" y2="126.08"/><line class="cls-12" x1="815.18" y1="130.09" x2="815.18" y2="737.53"/><line class="cls-3" x1="815.18" y1="739.54" x2="815.18" y2="741.54"/><line class="cls-3" x1="815.18" y1="5.8" x2="815.18" y2="7.8"/><line class="cls-13" x1="815.18" y1="11.93" x2="815.18" y2="42.89"/><line class="cls-3" x1="815.18" y1="44.96" x2="815.18" y2="46.96"/><line class="cls-3" x1="855.18" y1="46.96" x2="855.18" y2="48.96"/><line class="cls-14" x1="855.18" y1="52.81" x2="855.18" y2="120.16"/><line class="cls-3" x1="855.18" y1="122.08" x2="855.18" y2="124.08"/><text class="cls-15" transform="translate(833.08 713.3)">20</text><text class="cls-15" transform="translate(833.08 635.93)">30</text><text class="cls-15" transform="translate(833.08 558.55)">40</text><text class="cls-15" transform="translate(833.08 481.18)">50</text><text class="cls-15" transform="translate(833.08 403.8)">60</text><text class="cls-15" transform="translate(833.08 326.43)">70</text><text class="cls-15" transform="translate(833.08 249.06)">80</text><text class="cls-15" transform="translate(833.08 171.68)">90</text><text class="cls-15" transform="translate(0 713.3)">20</text><text class="cls-15" transform="translate(0 635.93)">30</text><text class="cls-15" transform="translate(0 558.55)">40</text><text class="cls-15" transform="translate(0 481.18)">50</text><text class="cls-15" transform="translate(0 403.8)">60</text><text class="cls-15" transform="translate(0 326.43)">70</text><text class="cls-15" transform="translate(0 249.06)">80</text><text class="cls-15" transform="translate(0 171.68)">90</text><text class="cls-15" transform="translate(766.32 94.1)"></text><text class="cls-15" transform="translate(420.35 17.64)">20</text><text class="cls-15" transform="translate(535.92 17.64)">30</text><text class="cls-15" transform="translate(302.38 17.64)">30</text><text class="cls-15" transform="translate(610.17 17.64)">40</text><text class="cls-15" transform="translate(224.57 17.64)">40</text><text class="cls-15" transform="translate(687.25 17.64)">50</text><text class="cls-15" transform="translate(765.23 17.64)">60</text><text class="cls-15" transform="translate(70.96 17.64)">60</text><text class="cls-15" transform="translate(143.9 17.64)">50</text><text class="cls-16" transform="translate(165.49 793.11) rotate(-90)">TI<tspan class="cls-17" x="12.84" y="0">L</tspan><tspan x="19.42" y="0">T</tspan></text><text class="cls-18" transform="translate(705.64 794.59) rotate(-90)">P<tspan class="cls-19" x="8.57" y="0">AN</tspan></text></g></g></svg>